<?xml version="1.0" encoding="utf-8"?>
<!-- Generator: Adobe Illustrator 19.2.0, SVG Export Plug-In . SVG Version: 6.00 Build 0)  -->
<!DOCTYPE svg PUBLIC "-//W3C//DTD SVG 1.1//EN" "http://www.w3.org/Graphics/SVG/1.1/DTD/svg11.dtd">
<svg version="1.1" id="Arrow_1_" xmlns="http://www.w3.org/2000/svg" xmlns:xlink="http://www.w3.org/1999/xlink" x="0px" y="0px"
	 viewBox="0 0 500 500" style="enable-background:new 0 0 500 500;" xml:space="preserve">
<style type="text/css">
	.st0{fill:#FFFFFF;stroke:#000000;stroke-miterlimit:10;}
</style>
<path class="st0" d="M335.8,485.4c-1.2-3.6-1.7-2.2-6.6-5.8c-4.7-3.6-2.1-1.2-6.6-5.9c-4.5-4.7-8.3-9.5-9.3-10.3
	c-0.9-0.8-0.3-3.2-1.7-6.1c-1.5-2.9-4.9-4.7-8.3-14.8c-3.5-10-4.7-29.3-6-39.6c-1.3-10.3-7.3-24.8-8.9-28.6
	c-1.6-3.7-0.6-4.3-0.7-6.1c-0.2-1.9-1.3-5.4-1.5-17.8c0.8-11-0.6-12.8-1-15.7c-0.5-2.9-0.7-6.5-0.7-6.5s0.6-1.6,0.6-2.7c0-1-2-8-2-8
	s5.8-11,9.8-20.8c4.1-9.8,6.4-14.3,6.8-16.1c0.5-1.7,3.8-3.8,3.8-3.8s-1,2.7-1.4,3.7c-0.3,1-1.9,5.3-2.3,6.6c-0.5,1.3,1,3.2,1.6,3
	s1.2-1.2,1.6-2s1.7-2.9,1.9-3.6c0.1-0.6,1.5-2.7,1.6-4.7c0.1-2.1,1.2-1.2,1.2,1s-0.7,7.5-1.5,9.5s2.8,2.1,3.4,1
	c0.6-1,1.3-4.1,1.5-5.6s1.2-4.4,1.6-5.8c0.5-1.4,1.2-0.6,1.2,1.5s-0.6,4.9-0.7,6.8c-0.2,1.9,0.1,3,0.7,3s1.9,0,2.1-0.8
	s1.6-4.9,1.7-8.3c1.7,0.3,2.2-0.6,2.2-0.6s0,0-0.3-1s-0.7-3.1-0.7-4.9c0-1.7,0.8-6.4,0.7-11.1c-0.1-4.7-2.7-7.1-3.7-16.5
	c-1-9.5,1.7-34.3,2.9-42.8c1.2-8.6,0.6-38.3-0.2-48c-0.8-9.7,0.8-28.6,1.2-33.3c0.2-4.7,2.5-6.9,3-12.5c0.6-5.6-4.4-18.6-9.1-21.1
	c-4.7-2.4-7.8-5.3-18.1-11.2c-3.2-1.9-5.6-3-7.9-3.6c-0.2-0.8-0.2-2,0.2-3.5c1.5-4.6,4.2-11.6,5-7.9s1.3,5.2,0.8,7.1s-1.6,3-1.6,3
	s2.2-0.9,2.7-3.7c1.6,2,1.7,4.6,0.9,5s-2.3,0.3-2.3,0.3s3.8,2,6.2,0.2s4.1-2.7,2.9-7.8c2.5,5.2,0.8,10-0.1,10.9s-2,1.5-2,1.5
	s4.5,0,6-1.9c1.6-1.9,7.3-6.8,3.7-18.5s-4.7-11.7-5-18.7c-0.3-7.1-4.7-19.2-11.6-28.8S280.1-3.5,266.2,1.9
	C258,3.2,251.9,9.2,249.5,15s-10.6,21.9-10.6,35.2s5,16.1,6.2,18.3c-0.8-3-2-7.4-0.3-5c1.6,2.4,3.4,4.2,2.5,6
	c-0.8,1.9-2.1,1.6-6.1,4.2c-4.1,2.7-4.5,3.1-4.1,4.6c0.6-1.4,2-2,3.6-1.6c0.9,0.2,2,0.3,3.2,0.7c-3.4,0.9-5.8,2.1-9.4,3.4
	c-8.1,2.8-16.8,13.8-24.4,25c-2.5,3.8-3.7,19.2-4.1,29.6c-0.5,10.4-4.9,25.7-8.2,37.4c-3.4,11.8-2.9,19.1-4.7,25.9
	s-0.6,16.7-1.6,21.6c-0.9,5-2.8,13.7-3.1,16.2s1.7,5.8,1.7,5.8s0,0,0.1,1.2s0.3,6.1,0.1,7.3s0.9,1.7,0.9,1.7s0.6,0.5,0,2
	s-7.6,10-10.2,12.6c-2.7,2.7-3.2,3.2-4.1,6.7c-0.8,3.5-1.2,2.1-2.5,5.2c-1.4,3.1-4.5,6.8-5.8,9.5c-1.4,2.7-2.3,5.1-4.7,9.3
	c0,0,0.9,2.2,4.3,0c2.9,0.1,4.1-0.9,4.5-2.1c0.5-1.2,3.8-5.7,3.8-5.7s0.2,1.7,0,3.7c0.8-0.1,2.4-0.6,3.6-2.2s0.8-3.5,1.2-4.2
	s2.4-4.6,3.6-6.6c1.2-2,2.8-4.4,2.8-4.4s0,0-1.2,3.4s-1.6,3.9-2.4,5.7c-0.7,1.6-0.5,5.1,1.5,5.6c1.9,0.5,3.7-1.6,4.9-3.6
	s1.6-5.6,2.4-8.7c0.7-3.1,6-5.7,8-10.3c2-4.7,1.6-13.4,1.6-13.4s2.7,0.2,3-0.2c0.3-0.5,1.6-2.9,1.6-2.9s10.1,44.7,12.7,52.7
	c2.7,7.9,2.7,6.2,4.5,9.1c1.7,2.9,14.1,8.3,14.1,8.3s0,0-0.2,6.5s-0.6,13.1-1.3,18.6s-7.6,15.7-10.1,25.3c-2.5,9.6-2.1,22.2-2.7,29
	c-0.6,6.8-4.6,17.5-5.7,21.5c-1,4.1-1.4,2.7-1.6,4.6c-0.2,2-1.3,2.1-3.4,4.2c-2.1,2.1-2.8,9.6,0,14.3c2.8,4.7,2.8-1.3,6.8,11.1
	c4.1,12.4,15,7.6,21.4,7.9s6.9-1.6,7.5-2.7c0.6-1-0.1-4.3-2.9-9c-2.8-4.7-6.7-10.6-10.2-17.5c-3.5-6.8-2.1-5.4-2.7-8.6
	c-0.6-3.1,2.5-11,4.6-16.7c2.1-5.8,8.4-18.3,12.2-24.8c3.7-6.6,7.4-16.7,7.4-16.7s2.5,6.7,1.6,12.4c-0.9,5.8,1.3,12.3,3.4,20.9
	c2.1,8.7,12,22.6,17.7,31.9c5.7,9.4,10.2,16.1,12,23.5c1.9,7.4,1.6,5.9,2.8,9.5c1.2,3.6,2.8,2.3,3,12.4s0,7.3,1.3,11
	s2.2,3.6,4.7,7.8c2.5,4.2,17.2-2.2,23.7-4.7C334.4,491.7,336.9,489,335.8,485.4z"/>
</svg>
