<?xml version="1.0" encoding="utf-8"?>
<!-- Generator: Adobe Illustrator 19.2.0, SVG Export Plug-In . SVG Version: 6.00 Build 0)  -->
<!DOCTYPE svg PUBLIC "-//W3C//DTD SVG 1.1//EN" "http://www.w3.org/Graphics/SVG/1.1/DTD/svg11.dtd">
<svg version="1.1" id="Arrow_1_" xmlns="http://www.w3.org/2000/svg" xmlns:xlink="http://www.w3.org/1999/xlink" x="0px" y="0px"
	 viewBox="0 0 500 500" style="enable-background:new 0 0 500 500;" xml:space="preserve">
<style type="text/css">
	.st0{fill:#FFFFFF;stroke:#000000;stroke-miterlimit:10;}
</style>
<g id="Layer_2">
	<g>
		<path class="st0" d="M336.4,172.8c-0.9-3.8-2.8-9.8-5.6-16.7s-3.5-10-6.5-21.8s-7.3-23.1-9.7-28.9c-2.4-5.8-4.3-11.2-7.2-15.5
			c-3-4.4-5.6-5.7-9.5-7.8c-3.9-2.2-13.7-5.9-19.7-7.4c-5.9-1.5-6.6-2.5-6.6-2.5c-1.3-2.3-5.5-5.3-5.5-5.3c-0.7-1.5-3.4-4.9-3.4-4.9
			c0-1.2,0.1-4.9,0.1-4.9c0.6-2,1.1-6.2,1.1-6.2s0.8,0.5,2.1-0.3c1.3-0.8,1.5-3.5,1.8-4.6c0.4-1.1,1-1.7,1.5-3.1
			c0.6-1.4,1.6-3.2,2.4-4.2s0.3-2.9-0.1-3.7c-0.5-0.9-1.9-0.7-3.1,0c0,0,0.6-4.1,0.5-5.9s0.4-1.5,0.9-7.9s-2.2-9.8-4-11.3
			c-1.9-1.6-5.5-5.5-8.4-6.6c-3-1.2-5.9-3.9-12.6-3c-6.7,0.9-13.5,5.6-16.5,7.8s-3.6,4.4-4.6,7.6s-0.4,8.5-0.2,10.3s0.7,7.2,0.7,7.2
			c-0.5-0.9-1.7-2.1-3-0.8c-1.3,1.3-0.5,4.4,0,5.6c0.5,1.2,1,3.5,1.7,4.9c0.7,1.5,0.1,2.7,0.8,5s3.3,1.7,3.3,1.7
			c0.3,0.4,0.4,5.8,0.6,7.7c0.2,2,2,5.3,2,5.3s-1.2,0.8-2.3,2.9c-1.2,2.2-6.2,10.4-6.2,10.4s-4.7,3-9.4,5.5
			c-4.6,2.5-14.6,8.3-16.9,10.5c-2.3,2.1-5.2,9.8-6.4,11.9c-1.2,2.2-2.4,5.4-3.1,8.4c-0.7,3.1-4.7,28-6.3,38.6
			c-1.6,10.6-4.4,26.3-4.2,28.4c0.2,2.1,0.8,9.6-0.3,13s-1.2,8.4-2.3,11.5c-1.2,3.1-0.3,3,0.3,7.6s3.9,15.8,4.5,17.9
			c0.7,2.1,1.8,5.1,1.9,6.7c0.1,1.6-1.3,16.4-0.5,17.2s3.8,0.8,3.8,0.8s-0.1,0.5,0.5,2c0.5,1.5,0.4,3.7-1.1,6.4s-1.7,6.5-3.2,10.5
			c-1.5,3.9,0.7,5.5,1.5,6.5s0.6,3.5,0.5,6.6c-0.1,3.2,1.6,4.1,3.4,5.6s3.2,2.1,3.8,3.6c0.6,1.6,1.7,1.3,1.7,1.3
			c0.1,0.9-2.2,16.4-2.8,21.1c-0.6,4.6,0.4,9.3,0.7,14.1s0.4,16.1-0.4,18.7c-0.8,2.5,0.1,4.5,0.6,5.2s1.1,2.6,0.2,4.6
			c-0.9,2-0.7,3.4-0.3,4.9c0.5,1.5,0.8,3.1,1.3,4.6s-0.6,2.3-1.3,3.6c-0.7,1.3,0.5,3.5,0.6,4.6c0.1,1.2,0.6,6.2,0.8,7.7s0.3,5,1,6.1
			c0.8,1.2-0.3,4.4,0.2,5.5s-0.2,3.4,0.4,4.7c0.6,1.4-0.8,4.5-0.3,6.3c0.6,1.8,0.9,4.7,0.3,8c-0.6,3.4,1.3,10.7,2,15.4
			s2.7,10.3,3.1,11.3c0.4,1.1-0.2,1.4-0.7,2.1s-1,3.7-1.8,6s0.6,3.9,1.3,4.4s1.1,0.7,0.3,1s-0.2,0.7-1,1.5s-2.8,4.8-3,5.3
			s-0.8,0.5-1.5,1.2s-0.1,1.3,0,1.4s-0.4,0.7-1.4,1.4c-1,0.8-1,2.5-1,2.5l-1.6,2.5c0,0-1,0.2-1.6,0.8c-0.6,0.6,0.4,1.1,0.4,1.1
			s-0.4,0.4-2.7,2.3s-3.6,3.2-3.6,3.2s-5.3,2.7-6.9,4c-1.7,1.3-6.4,5.2-6.4,5.2s-1-0.3-1.3,2.3c-0.3,2.6,0.9,4.1,0.9,4.1
			c3.8,1.4,12.4,3.1,18,2.8c5.6-0.4,11.9-1.8,13.9-3.4s2.4-2.1,5.6-2.8c3.2-0.7,12.5-2.8,15.5-3.5s3.5-1.5,3.5-1.5
			c0.5-0.9,0.5-4.8,1-6.1c0.5-1.3,0.2-9-0.2-11.4c-0.4-2.5-0.6-5-0.6-5c4.1-2.4,3.2-7.4,2.9-8.4s-2.7-3-1.4-3.5s0.7-2.1,0.7-2.9
			c0-0.9,1.3-12.1,1.3-18.3c-0.1-6.2-1.3-18.9-1.3-23.7s-0.4-10.3-0.8-11.1c-0.4-0.8,0.3-5,0-6.2c-0.3-1.3,0-4.9-0.4-6.2
			c-0.4-1.3-0.1-4.9-0.3-5.7c-0.2-0.9-0.9-2.9-0.6-3.9c0.3-1-0.5-2.9-0.1-5.3s-1.5-5.9-2.1-7s1.5-1.9,2.9-2.7c1.4-0.8-0.4-2,0.5-3.7
			c0.9-1.8,0.5-4.1,0.3-4.7s-0.2-2.6,0.1-3.6s-0.6-1.8-0.6-3.1c0-1.3,0.6-2.5,3.4-6.1c2.9-3.7,4.3-10,4.1-13.1s0-5.6,0-5.6
			c1.3-2.4,5.9-15,8.7-20.9s5.1-17.4,5.1-17.4l3.4-1l2,8.3c0,0,1.1,2.8,0.7,5.6c-0.5,2.8,2.9,21.2,3.2,25.3c0.4,4.1,1,14.6,1.3,19.6
			s-0.1,14.3-0.4,17.9s1.5,5.8,1.6,8.3c0.1,2.6,1,6.9,2.2,9c1.2,2.1,0,6.9-0.6,8c-0.5,1.1,0.4,5.2,0,6.5s0.7,3.5,0.4,4.8
			c-0.3,1.3-0.1,6.8-0.6,9.7c-0.5,2.9-0.9,12.3-0.7,13.4s0.4,10,0.2,12.2s-2.9,12.3-3.4,14.4c-0.5,2.2,0.9,9.3,0.9,9.3s-2,2.2-4,4
			s-0.6,5.5,0,6.3s2.6,1.3,2.5,1.6c-0.1,0.3-0.4,2.5-0.3,3.5c0.1,1.1,1.2,1.4,1.2,1.4c0.2,0.6,0,10.7,0,11.4c0,0.8-0.4,2.9-0.7,3.5
			c-0.3,0.5-0.7,2.5-1.2,3.3s-0.2,3-0.2,3.4c0,0.5-0.5,1-0.5,1s-0.1,3.5,0,4.7c0.1,1.1,0.4,3,2.2,3.2s8.8,0.5,18.1,0.3
			c9.4-0.2,10.2-3.9,10.2-3.9s0-4.6,0.1-5.7c0-1.1-0.1-3.4,0.3-4.5s-0.8-2.2-1.4-4.3c-0.6-2.1-2.1-5.5-2.7-6.9s-1.8-3-1.8-3l0.3-1.9
			c0,0,1.3-0.3,1.8-1.5s1.1-3.7,1.2-4.5s-1.2-1.6-1.4-2.3c-0.2-0.7-1.7-2-1.7-2s2.6-0.1,4.4-1.5c1.8-1.5,2.5-2.7,2.4-3.1
			s-0.6-2.9-0.8-4s-2-5.6-2-5.6c3.5-4,4.8-17.7,5.1-21.2c0.3-3.5,1.1-9.4,1.3-10.4c0.2-0.9,0.6-5.1,0.8-5.8c0.2-0.8-0.6-2.7-0.5-3.3
			c0.1-0.6-0.1-1.6,0.3-2.7s0.5-3.3,0.6-4.2s0.5-2.6,0.5-3.5s0-2.6,0.2-3.2c0.3-0.6-0.4-1.7-0.1-2.8s0.2-2.5,0.2-3.5
			c0-1.1,0.6-2,0.5-2.9s0-2.8,0.1-4.8s-1.2-3.6-1.5-4.3c-0.3-0.8-0.8-2.2-0.5-3.6c0.2-1.4,0.3-2.9,0.1-3.4c-0.2-0.5-0.9-0.9-0.6-2.4
			c0.3-1.4-0.7-4.6-0.9-5.4c-0.2-0.9,0.8-1.1,1.4-2.3c0.6-1.1,0.8-2.9,0.8-3.7s-0.5-1.9-0.6-2.4c-0.2-0.5,0.2-2.6,0.3-4.5
			s-0.1-4.6-0.2-5.5s0.8-1.8,1.2-3.2c0.4-1.4,0.5-6.8,0.5-8.2s1.4-5.1,2.5-7.7s0.6-7.1,0.4-8.3c-0.2-1.3-0.3-2.5,0.2-4.2
			s0.7-4.1,0.9-4.6c0.3-0.5,0.4-2.2,0.7-2.7c0.3-0.5-0.1-3.5,0.2-4c0.3-0.5,0.8-3.4,1-4c0.3-0.5,0.7-5.4,0.8-6.5
			c0.1-1,1.2-1,1.9-1.8c0.7-0.8,0-3.8-0.2-5.9s1.7-9.9,2.7-14.4c0.9-4.5,0.8-9.5,0.8-9.5c1.2-2.3,2.4-6.5,2.5-7.4
			c0.2-0.9-0.1-2,0.7-2.7c0.8-0.7,1.6-2.4,2.8-4.2s2.8-2.8,3.2-4c0.5-1.2,2.6-5.9,2.6-5.9l0.9,0.6c0,0-0.9,2.8-1.4,3.8
			c-0.5,1.1-0.3,2,0.2,1.6s4-3.9,4-3.9s0.9-2.4,2.5-6.3c1.6-3.9,2.8-8.1,3.5-9.5c0.7-1.3,5.8-5.2,7-6.5s3.9-7.2,5.2-9.7
			c1.3-2.5,1.8-5.4,1.9-7.3s1.6-7.4,2.2-11.1C337.8,178.3,337.3,176.6,336.4,172.8z M194.9,255.5c-0.1-0.9-0.4-1.4,0.2-2.1
			c0.6-0.7,1-1.1,1-1.1s0,2.1,0.1,3.4s0.3,1.9,0.3,1.9C195.8,256.9,195,256.4,194.9,255.5z M199.9,229.5c-0.3,2,0.1,6.1-0.5,7.7
			c-0.6,1.6-2.4,7.7-2.4,7.7s0-4,0.3-5.8c0.3-1.9-0.3-4.7,0.6-6.8c0.8-2,1-4.3,1.1-6.5c0.1-2.3,1.1-3.5,1.1-3.5
			C199.8,223.5,200.2,227.5,199.9,229.5z M208.4,172.6c-0.8,1.2-0.3,5-0.5,7.5c-0.2,2.4-0.5,6.9-0.5,6.9c-0.9-1.6-3.1-4.7-3-4.9
			s1.6-3.4,1.8-6c0.2-2.7,0-5.3,0.5-6.1c0.4-0.8,2.1-3.8,2.1-3.8S209.2,171.5,208.4,172.6z M306.6,179.6c-1.2,3-1,6-0.5,7.5
			c0.4,1.5,1,2.1,1.2,2.9c0.2,0.8-1.2,4.5-1.7,6.1c-0.4,1.5-2.4,5.3-3,7.4c0,0-0.3-8-1.4-11.7s-1.1-10.2-1.8-16.2
			c-0.8-6-2.1-15.3-2.9-16.9c0,0,0.5-1.8,0.7-2.7c0.2-1,0.2-2.1,0.2-2.1c1.2,1.5,4.5,4.8,4.5,4.8s0.4,8.6,1.3,10.3
			c1,1.7,5.6,5.8,5.8,6C309.4,175.1,307.8,176.6,306.6,179.6z"/>
	</g>
</g>
</svg>
