<?xml version="1.0" encoding="utf-8"?>
<!-- Generator: Adobe Illustrator 17.1.0, SVG Export Plug-In . SVG Version: 6.00 Build 0)  -->
<!DOCTYPE svg PUBLIC "-//W3C//DTD SVG 1.1 Basic//EN" "http://www.w3.org/Graphics/SVG/1.1/DTD/svg11-basic.dtd">
<svg version="1.1" baseProfile="basic" id="Arrow_1_"
	 xmlns="http://www.w3.org/2000/svg" xmlns:xlink="http://www.w3.org/1999/xlink" x="0px" y="0px" width="500px" height="500px"
	 viewBox="0 0 500 500" xml:space="preserve">
  <metadata>
    <?xpacket begin="﻿" id="W5M0MpCehiHzreSzNTczkc9d"?>
    <x:xmpmeta xmlns:x="adobe:ns:meta/" x:xmptk="Adobe XMP Core 5.6-c011 79.156380, 2014/06/19-23:40:37        ">
     <rdf:RDF xmlns:rdf="http://www.w3.org/1999/02/22-rdf-syntax-ns#">
      <rdf:Description rdf:about=""
        xmlns:xmpMM="http://ns.adobe.com/xap/1.0/mm/"
        xmlns:stEvt="http://ns.adobe.com/xap/1.0/sType/ResourceEvent#"
        xmlns:xmp="http://ns.adobe.com/xap/1.0/"
        xmlns:xmpRights="http://ns.adobe.com/xap/1.0/rights/"
        xmlns:dc="http://purl.org/dc/elements/1.1/"
       xmpMM:DocumentID="xmp.did:ef95f7b00ceac05e6a3efb7a774b8a5e"
       xmpMM:OriginalDocumentID="xmp.did:ef95f7b00ceac05e6a3efb7a774b8a5e"
       xmpMM:InstanceID="xmp.iid:ef95f7b00ceac05e6a3efb7a774b8a5e"
       xmp:ModifyDate="2015-04-08T16:18:07+02:00"
       xmp:MetadataDate="2015-04-08T16:18:07+02:00"
       xmpRights:Marked="True"
       xmpRights:WebStatement="http://www.adobe.com/legal/general-terms.html">
       <xmpMM:History>
        <rdf:Seq>
         <rdf:li
          stEvt:action="saved"
          stEvt:instanceID="xmp.iid:ef95f7b00ceac05e6a3efb7a774b8a5e"
          stEvt:when="2015-04-08T16:18:07+02:00"/>
        </rdf:Seq>
       </xmpMM:History>
       <xmpRights:UsageTerms>
        <rdf:Alt>
         <rdf:li xml:lang="x-default">This work is licensed under the Adobe General Terms of Use http://www.adobe.com/legal/general-terms.html.</rdf:li>
        </rdf:Alt>
       </xmpRights:UsageTerms>
       <dc:publisher>
        <rdf:Bag>
         <rdf:li>Adobe Systems Incorporated</rdf:li>
        </rdf:Bag>
       </dc:publisher>
      </rdf:Description>
     </rdf:RDF>
    </x:xmpmeta>
    <?xpacket end="r"?>
  </metadata>
<g>
	<path fill="#1A1A1A" d="M192,166.9c-9.6,0-17.5,7.9-17.5,17.5c0,9.6,7.8,17.5,17.4,17.5c0,0,0.1,0,0.1,0c0,0,0.1,0,0.1,0
		c9.6-0.1,17.4-7.9,17.4-17.5C209.6,174.7,201.7,166.9,192,166.9z"/>
	<path fill="#1A1A1A" d="M307.8,201.9c0,0,0.1,0,0.1,0s0.1,0,0.1,0c9.6-0.1,17.4-7.9,17.4-17.5c0-9.7-7.9-17.5-17.5-17.5
		c-9.6,0-17.5,7.9-17.5,17.5C290.4,194,298.2,201.9,307.8,201.9z"/>
	<path fill="#1A1A1A" d="M439.3-1h-29.1H89.8H60.7c-8,0-14.5,6.5-14.5,14.5S52.7,28,60.7,28h14.6v456.5c0,5.6,3.2,10.7,8.3,13.1
		c5.1,2.4,11.1,1.6,15.4-2c0.6-0.5,56.9-46.4,150.9-46.4c93.4,0,150.4,46,151,46.5c2.7,2.2,5.9,3.3,9.2,3.3c2.1,0,4.2-0.5,6.1-1.4
		c5.1-2.4,8.3-7.5,8.3-13.1V28h14.6c8,0,14.5-6.5,14.5-14.5S447.3-1,439.3-1z M104.3,28h131.2V373H104.3V28z M395.7,457.6
		c-27.5-15.7-77.7-37.3-145.7-37.3s-118.3,21.6-145.7,37.3V402h291.4V457.6z M395.7,373H264.5V28h131.2V373z"/>
</g>
</svg>
